<svg width="36" height="36" viewBox="0 0 36 36" fill="none" xmlns="http://www.w3.org/2000/svg">
<circle cx="18" cy="18" r="18" fill="#F2F2F2"/>
<path d="M18.2923 23.472C17.8869 23.472 17.5669 23.344 17.3323 23.088C17.1189 22.8107 17.0123 22.448 17.0123 22C17.0123 21.3387 17.0869 20.72 17.2363 20.144C17.4069 19.5467 17.6736 18.9493 18.0363 18.352C18.3989 17.7547 18.8789 17.1253 19.4763 16.464C19.9243 15.952 20.2763 15.504 20.5323 15.12C20.8096 14.7147 21.0016 14.3307 21.1083 13.968C21.2363 13.6053 21.3003 13.232 21.3003 12.848C21.3003 12.144 21.0443 11.5893 20.5323 11.184C20.0203 10.7787 19.2949 10.576 18.3563 10.576C17.5029 10.576 16.7243 10.6933 16.0203 10.928C15.3376 11.1413 14.6443 11.4507 13.9403 11.856C13.4709 12.1333 13.0443 12.2613 12.6603 12.24C12.2976 12.1973 11.9989 12.0587 11.7643 11.824C11.5296 11.5893 11.3803 11.3013 11.3163 10.96C11.2523 10.6187 11.3056 10.2667 11.4763 9.904C11.6469 9.54133 11.9563 9.21067 12.4043 8.912C13.2789 8.336 14.2816 7.89867 15.4123 7.6C16.5429 7.28 17.6096 7.12 18.6123 7.12C19.9563 7.12 21.1296 7.344 22.1323 7.792C23.1563 8.24 23.9456 8.85867 24.5003 9.648C25.0763 10.4373 25.3643 11.3653 25.3643 12.432C25.3643 13.0933 25.2683 13.7227 25.0763 14.32C24.8843 14.896 24.5749 15.4827 24.1483 16.08C23.7216 16.656 23.1349 17.2853 22.3883 17.968C21.7269 18.5653 21.1936 19.1093 20.7883 19.6C20.4043 20.0907 20.1163 20.56 19.9243 21.008C19.7536 21.456 19.6363 21.936 19.5723 22.448C19.5509 22.7467 19.4229 22.992 19.1883 23.184C18.9749 23.376 18.6763 23.472 18.2923 23.472ZM18.2283 30.16C17.5029 30.16 16.9163 29.936 16.4683 29.488C16.0416 29.04 15.8283 28.464 15.8283 27.76C15.8283 27.0773 16.0416 26.5227 16.4683 26.096C16.9163 25.648 17.5029 25.424 18.2283 25.424C18.9749 25.424 19.5509 25.648 19.9563 26.096C20.3829 26.5227 20.5963 27.0773 20.5963 27.76C20.5963 28.464 20.3829 29.04 19.9563 29.488C19.5509 29.936 18.9749 30.16 18.2283 30.16Z" fill="#929292"/>
</svg>
